<?xml version="1.0" encoding="iso-8859-1"?>
<!-- Uploaded to: SVG Repo, www.svgrepo.com, Generator: SVG Repo Mixer Tools -->
<svg height="800px" width="800px" version="1.1" id="Layer_1" xmlns="http://www.w3.org/2000/svg" xmlns:xlink="http://www.w3.org/1999/xlink" 
	 viewBox="0 0 512 512" xml:space="preserve">
<path style="fill:#F64B4A;" d="M256.964,503.612C120.485,503.612,9.45,392.578,9.45,256.098S120.485,8.585,256.964,8.585
	s247.512,111.034,247.512,247.513S393.443,503.612,256.964,503.612z"/>
<path style="fill:#FED159;" d="M256.964,452.69c-108.401,0-196.592-88.191-196.592-196.592s88.19-196.592,196.592-196.592
	c108.4,0,196.591,88.191,196.591,196.592S365.364,452.69,256.964,452.69z"/>
<path style="fill:#F64B4A;" d="M256.964,401.769c-80.322,0-145.67-65.348-145.67-145.67s65.348-145.67,145.67-145.67
	s145.669,65.348,145.669,145.67S337.287,401.769,256.964,401.769z"/>
<circle style="fill:#FED159;" cx="256.961" cy="256.101" r="94.748"/>
<path d="M281.674,233.351c4.688,0,8.487-3.8,8.487-8.487s-3.799-8.487-8.487-8.487h-17.187v-9.305c0-4.687-3.799-8.487-8.487-8.487
	c-4.688,0-8.487,3.8-8.487,8.487v9.305h-17.187c-4.688,0-8.487,3.8-8.487,8.487V256c0,4.687,3.799,8.487,8.487,8.487h42.859v14.162
	h-42.859c-4.688,0-8.487,3.8-8.487,8.487c0,4.687,3.799,8.487,8.487,8.487h17.187v9.305c0,4.687,3.799,8.487,8.487,8.487
	c4.688,0,8.487-3.8,8.487-8.487v-9.305h17.187c4.688,0,8.487-3.8,8.487-8.487V256c0-4.687-3.799-8.487-8.487-8.487h-42.859v-14.162
	H281.674z"/>
<path d="M256.001,0c-43.289,0-86.1,11.057-123.807,31.976c-4.099,2.273-5.578,7.44-3.304,11.539
	c2.274,4.097,7.438,5.578,11.539,3.303c35.193-19.524,75.159-29.844,115.572-29.844C387.8,16.974,495.026,124.201,495.026,256
	S387.799,495.026,256.001,495.026C124.201,495.026,16.974,387.799,16.974,256c0-37.811,8.611-73.999,25.596-107.558
	c16.2-32.013,39.877-60.497,68.471-82.374c3.722-2.848,4.431-8.175,1.582-11.897c-2.846-3.722-8.172-4.431-11.898-1.583
	c-30.608,23.418-55.955,53.914-73.301,88.19C9.228,176.736,0.001,215.502,0.001,256c0,141.159,114.841,256,256,256
	s255.999-114.841,255.999-256S397.16,0,256.001,0z"/>
<path d="M230.71,459.526c8.331,1.03,16.841,1.553,25.292,1.553c113.081,0,205.077-91.998,205.077-205.079
	S369.081,50.921,256.001,50.921S50.922,142.919,50.922,256c0,44.342,13.982,86.58,40.436,122.148
	c25.559,34.365,61.975,60.404,102.538,73.32c4.464,1.422,9.239-1.047,10.662-5.512c1.422-4.466-1.046-9.239-5.512-10.662
	c-37.204-11.847-70.612-35.739-94.069-67.276C80.719,335.4,67.896,296.665,67.896,256c0-103.721,84.384-188.105,188.105-188.105
	S444.104,152.279,444.104,256s-84.382,188.105-188.104,188.105c-7.757,0-15.566-0.479-23.21-1.424
	c-4.644-0.569-8.889,2.729-9.463,7.381C222.753,454.715,226.058,458.951,230.71,459.526z"/>
<path d="M366.14,160.388c3.355-3.274,3.42-8.646,0.146-12c-29.293-30.015-68.461-46.544-110.286-46.544
	c-85.003,0-154.157,69.155-154.157,154.157s69.155,154.157,154.157,154.157S410.157,341.003,410.157,256
	c0-26.469-6.853-52.596-19.818-75.561c-2.305-4.082-7.482-5.521-11.564-3.218c-4.081,2.305-5.522,7.481-3.218,11.564
	c11.53,20.422,17.624,43.665,17.624,67.215c0,75.643-61.54,137.183-137.182,137.183S118.817,331.643,118.817,256
	s61.54-137.183,137.183-137.183c37.213,0,72.065,14.712,98.138,41.425C357.412,163.596,362.786,163.663,366.14,160.388z"/>
<path d="M256.001,152.764c-56.924,0-103.236,46.311-103.236,103.236s46.311,103.236,103.236,103.236S359.236,312.924,359.236,256
	S312.926,152.764,256.001,152.764z M256.001,342.262c-47.565,0-86.262-38.697-86.262-86.262s38.697-86.262,86.262-86.262
	s86.262,38.697,86.262,86.262S303.567,342.262,256.001,342.262z"/>
</svg>